<?xml version="1.0" encoding="utf-8"?>
<!-- Generator: Adobe Illustrator 27.5.0, SVG Export Plug-In . SVG Version: 6.00 Build 0)  -->
<svg version="1.1" xmlns="http://www.w3.org/2000/svg" xmlns:xlink="http://www.w3.org/1999/xlink" x="0px" y="0px"
	 viewBox="0 0 3710 3710" style="enable-background:new 0 0 3710 3710;" xml:space="preserve">
<g id="Background">
	<g>
		<g>
			<rect style="fill:#FFFFFF;" width="3710" height="3710"/>
		</g>
	</g>
</g>
<g id="Illustration">
	<g>
		<linearGradient id="SVGID_1_" gradientUnits="userSpaceOnUse" x1="3436.5173" y1="3638.2766" x2="1528.7826" y2="1607.4629">
			<stop  offset="0" style="stop-color:#DAE3FE"/>
			<stop  offset="1" style="stop-color:#E9EFFD"/>
		</linearGradient>
		<path style="fill:url(#SVGID_1_);" d="M2863.721,2823.523c-70.426,72.593-133.44,115.265-181.686,147.479
			c-470.535,314.18-1008.407,223.626-1174.704,192.675c-268.3-49.936-494.781-85.164-689.37-260.967
			c-442.164-399.478-420.658-1232.817-82.791-1749.035c40.061-61.209,377.416-561.274,916.453-631.738
			c13.184-1.723,23.021-2.705,31.637-3.617c83.388-8.829,600.125-55.426,1021.473,297.579
			c60.314,50.531,157.376,141.676,247.385,280.687C3281.23,1604.873,3282.273,2392.096,2863.721,2823.523z"/>
		<g>
			<g>
				<g>
					
						<linearGradient id="SVGID_00000181085050282232898170000013058718358791099065_" gradientUnits="userSpaceOnUse" x1="1491.5236" y1="1791.8345" x2="3147.4177" y2="1791.8345" gradientTransform="matrix(0.9998 -0.0219 0.0219 0.9998 28.2232 -27.654)">
						<stop  offset="0" style="stop-color:#09005D"/>
						<stop  offset="1" style="stop-color:#1A0F91"/>
					</linearGradient>
					<path style="fill:url(#SVGID_00000181085050282232898170000013058718358791099065_);" d="M1678.233,496.624
						c-64.203,5.583-113.427,59.353-113.61,123.798c-1.118,394.109-2.962,1753.495,22.726,2234.642
						c2.721,50.973,44.511,91.016,95.554,91.566c252.46,2.718,978.651,7.711,1390.913-18.659
						c85.868-5.492,152.687-76.61,152.583-162.653c-0.501-413.631-7.11-1576.904-63.77-2108.623
						c-6.789-63.708-58.001-113.436-121.876-118.413C2765.407,516.828,2034.222,465.664,1678.233,496.624z"/>
					
						<linearGradient id="SVGID_00000140014830948862996090000015881695502800914613_" gradientUnits="userSpaceOnUse" x1="2987.3435" y1="405.2343" x2="1799.6376" y2="2830.1365">
						<stop  offset="0" style="stop-color:#FF928E"/>
						<stop  offset="1" style="stop-color:#FE7062"/>
					</linearGradient>
					<path style="fill:url(#SVGID_00000140014830948862996090000015881695502800914613_);" d="M1665.963,723.705
						c-4.958,337.125-19.074,1458.601,5.568,1872.517c3.602,60.5,50.596,108.264,108.624,110.286
						c238.917,8.326,851.581,24.438,1200.688-13.975c62.863-6.917,110.907-61.405,112.581-127.383
						c8.733-344.035,32.321-1388.56,8.371-1797.848c-3.821-65.293-53.704-117.392-116.234-121.605
						c-258.691-17.431-922.977-57.63-1219.845-32.908C1709.988,617.43,1666.822,665.341,1665.963,723.705z"/>
					<path style="fill:#1F5AA9;" d="M2243.215,555.24c0.205,9.314,7.632,16.836,16.944,17.119
						c45.972,1.397,175.476,5.361,233.359,7.447c11.413,0.411,20.134-10.031,17.726-21.195c-0.198-0.352-1.681-14.665-16.299-15.681
						c-39.156-2.723-157.285-10.063-235.348-5.559C2243.567,538.295,2242.696,556.525,2243.215,555.24z"/>
				</g>
			</g>
			<path style="opacity:0.24;fill:#FFFFFF;" d="M2880.383,2601.696H1821.431c-52.911,0-95.803-71.164-95.803-158.95V845.057
				c0-77.433,37.835-140.206,84.506-140.206H2928.51c53.757,0,97.336,72.303,97.336,161.493v1494.008
				C3025.847,2493.643,2960.72,2601.696,2880.383,2601.696z"/>
			<g style="opacity:0.67;">
				<path style="fill:#FFFFFF;" d="M2950.695,987.777l-395.681-6.041c-6.582-0.1-11.885-5.568-11.785-12.15l0.918-60.15
					c0.101-6.582,5.568-11.885,12.15-11.785l395.681,6.041c6.582,0.1,11.885,5.568,11.785,12.15l-0.918,60.15
					C2962.745,982.574,2957.277,987.878,2950.695,987.777z"/>
				<path style="fill:#FFFFFF;" d="M2948.218,1160.009l-395.681-6.041c-6.582-0.1-11.885-5.568-11.785-12.15l0.918-60.15
					c0.101-6.582,5.568-11.885,12.15-11.785l395.681,6.041c6.582,0.1,11.885,5.568,11.785,12.15l-0.918,60.15
					C2960.268,1154.807,2954.8,1160.11,2948.218,1160.009z"/>
				<path style="fill:#FFFFFF;" d="M2945.436,1332.242l-395.681-6.041c-6.582-0.1-11.885-5.568-11.785-12.15l0.918-60.15
					c0.101-6.582,5.568-11.885,12.15-11.785l395.681,6.041c6.582,0.1,11.885,5.568,11.785,12.15l-0.918,60.15
					C2957.486,1327.039,2952.019,1332.342,2945.436,1332.242z"/>
			</g>
			<g style="opacity:0.58;">
				<g>
					<path style="fill:#FFFFFF;" d="M2940.664,1826.821h-970.147c-7.439,0-13.525-6.086-13.525-13.525v-76.956
						c0-7.438,6.086-13.525,13.525-13.525h970.147c7.438,0,13.524,6.086,13.524,13.525v76.956
						C2954.189,1820.735,2948.103,1826.821,2940.664,1826.821z"/>
					<ellipse style="fill:#FFFFFF;" cx="1829.082" cy="1774.502" rx="57.829" ry="63.053"/>
				</g>
				<g>
					<path style="fill:#FFFFFF;" d="M2940.664,2021.985h-970.147c-7.439,0-13.525-6.086-13.525-13.524v-76.956
						c0-7.439,6.086-13.525,13.525-13.525h970.147c7.438,0,13.524,6.086,13.524,13.525v76.956
						C2954.189,2015.9,2948.103,2021.985,2940.664,2021.985z"/>
					<ellipse style="fill:#FFFFFF;" cx="1829.082" cy="1969.666" rx="57.829" ry="63.053"/>
				</g>
				<g>
					<path style="fill:#FFFFFF;" d="M2940.664,2217.15h-970.147c-7.439,0-13.525-6.086-13.525-13.524v-76.956
						c0-7.438,6.086-13.524,13.525-13.524h970.147c7.438,0,13.524,6.086,13.524,13.524v76.956
						C2954.189,2211.064,2948.103,2217.15,2940.664,2217.15z"/>
					<ellipse style="fill:#FFFFFF;" cx="1829.082" cy="2164.831" rx="57.829" ry="63.053"/>
				</g>
				<g>
					<path style="fill:#FFFFFF;" d="M2940.664,2412.314h-970.147c-7.439,0-13.525-6.086-13.525-13.524v-76.956
						c0-7.438,6.086-13.525,13.525-13.525h970.147c7.438,0,13.524,6.086,13.524,13.525v76.956
						C2954.189,2406.229,2948.103,2412.314,2940.664,2412.314z"/>
					<ellipse style="fill:#FFFFFF;" cx="1829.082" cy="2359.995" rx="57.829" ry="63.053"/>
				</g>
			</g>
		</g>
		<g>
			
				<linearGradient id="SVGID_00000170976800389345062930000016721440806648639906_" gradientUnits="userSpaceOnUse" x1="2602.2031" y1="1825.2665" x2="2663.9141" y2="2475.291" gradientTransform="matrix(0.9455 -0.3256 0.3725 1.0816 -862.8168 413.5202)">
				<stop  offset="0" style="stop-color:#4F52FF"/>
				<stop  offset="1" style="stop-color:#4042E2"/>
			</linearGradient>
			<path style="fill:url(#SVGID_00000170976800389345062930000016721440806648639906_);" d="M2286.467,2032.439l-54.111,18.637
				l-84.956-246.67c-33.368-96.884,1.835-200.594,81.886-241.241l105.339-53.484c45.338-23.02,99.128-22.45,147.572,1.57
				c48.442,24.02,87.064,69.269,105.965,124.146l67.081,194.767c3.914,11.365-0.967,23.352-10.902,26.774l-36.122,12.441
				l-74.168-215.346c-12.802-37.171-38.964-67.821-71.776-84.091c-32.813-16.27-69.252-16.657-99.958-1.063l-105.34,53.484
				c-54.289,27.564-78.096,97.698-55.466,163.403L2286.467,2032.439z"/>
			
				<linearGradient id="SVGID_00000163041932133811456970000005017560613305341119_" gradientUnits="userSpaceOnUse" x1="2363.4226" y1="1938.8041" x2="2522.9258" y2="2701.6438">
				<stop  offset="0" style="stop-color:#4F52FF"/>
				<stop  offset="1" style="stop-color:#4042E2"/>
			</linearGradient>
			<path style="fill:url(#SVGID_00000163041932133811456970000005017560613305341119_);" d="M2155.534,1976.035l501.677-27.793
				c20.376-1.129,37.517,15.089,37.517,35.496v397.434c0,19.634-15.916,35.551-35.551,35.551h-489.623
				c-19.183,0-34.906-15.219-35.532-34.392l-12.053-369.64C2121.34,1993.381,2136.245,1977.104,2155.534,1976.035z"/>
			
				<linearGradient id="SVGID_00000106118718485154816380000006334086206522953606_" gradientUnits="userSpaceOnUse" x1="2667.177" y1="1872.0272" x2="2494.3813" y2="2098.2888">
				<stop  offset="0" style="stop-color:#09005D"/>
				<stop  offset="1" style="stop-color:#1A0F91"/>
			</linearGradient>
			<path style="fill:url(#SVGID_00000106118718485154816380000006334086206522953606_);" d="M2490.126,2302.87l-30.365-87.297
				c-3.651-10.496-1.164-22.231,6.642-30.14c15.561-15.767,24.833-37.753,23.735-61.899c-1.937-42.583-36.724-77.109-79.32-78.746
				c-47.139-1.811-85.924,35.866-85.924,82.603c0,25.928,11.942,49.058,30.623,64.209c9.688,7.859,13.671,20.774,9.573,32.557
				l-27.378,78.712c-6.658,19.143,7.555,39.135,27.823,39.135h96.77C2482.571,2342.005,2496.784,2322.013,2490.126,2302.87z"/>
		</g>
		<path style="opacity:0.34;fill:#FFFFFF;" d="M1911.899,975.209C989.896,750.315,310.913,1373.442,801.384,2235.564h605.713
			c-422.286-442.075,60.375-907.324,479.815-1146.851L1911.899,975.209z"/>
		<g>
			
				<ellipse transform="matrix(0.7071 -0.7071 0.7071 0.7071 -376.6752 1362.649)" style="fill:#91B3FA;" cx="1456.525" cy="1136.012" rx="152.236" ry="152.236"/>
			<g style="opacity:0.9;">
				<path style="fill:#FFFFFF;" d="M1458.623,1235.809c-54.982,0-99.714-44.732-99.714-99.714c0-54.982,44.732-99.714,99.714-99.714
					s99.714,44.732,99.714,99.714C1558.337,1191.077,1513.605,1235.809,1458.623,1235.809z M1458.623,1053.092
					c-45.769,0-83.004,37.235-83.004,83.004c0,45.769,37.236,83.004,83.004,83.004c45.768,0,83.004-37.235,83.004-83.004
					C1541.627,1090.327,1504.391,1053.092,1458.623,1053.092z"/>
				<path style="fill-rule:evenodd;clip-rule:evenodd;fill:#FFFFFF;" d="M1427.386,1174.496v-71.687
					c0-7.66,8.338-12.408,14.925-8.499l60.406,35.843c6.453,3.829,6.453,13.169,0,16.998l-60.406,35.843
					C1435.724,1186.903,1427.386,1182.156,1427.386,1174.496z"/>
			</g>
		</g>
		<g>
			<g>
				
					<ellipse transform="matrix(0.7071 -0.7071 0.7071 0.7071 -962.0229 1057.4451)" style="fill:#91B3FA;" cx="795.438" cy="1689.987" rx="198.065" ry="198.064"/>
			</g>
			<g>
				<g>
					<path style="fill:#FFFFFF;" d="M925.39,1799.516c0,3.938-3.193,7.131-7.131,7.131H671.872c-3.938,0-7.131-3.193-7.131-7.131
						v-206.795c0-3.938,3.193-7.131,7.131-7.131h246.387c3.938,0,7.131,3.193,7.131,7.131V1799.516z M681.237,1786.851h230.955
						v-188.063H681.237V1786.851z"/>
				</g>
				<g>
					<path style="fill:#FFFFFF;" d="M860.791,1657.751c-1.956-2.538-5.057-4.033-8.261-4.053c-3.204-0.021-6.281,1.436-8.269,3.947
						l-52.483,66.267c-1.806,2.281-4.495,3.702-7.395,3.918c-2.901,0.217-5.765-0.791-7.89-2.778l-40.017-37.433
						c-3.954-3.7-10.63-3.748-14.643-0.112l-50.493,45.266v63.975h247.452v-63.975L860.791,1657.751z"/>
				</g>
				<g>
					
						<ellipse transform="matrix(0.7071 -0.7071 0.7071 0.7071 -940.4424 1001.9837)" style="fill:#FFFFFF;" cx="739.28" cy="1636.206" rx="25.256" ry="25.256"/>
				</g>
			</g>
		</g>
		<g>
			
				<ellipse transform="matrix(0.7071 -0.7071 0.7071 0.7071 -666.1692 1184.3451)" style="fill:#91B3FA;" cx="1096.547" cy="1396.31" rx="169.914" ry="169.913"/>
			<g>
				<path style="fill:#FFFFFF;" d="M1097.136,1531.947L1097.136,1531.947c-11.265,0-21.474-5.754-27.308-15.394
					c-32.884-54.327-72.084-125.882-72.084-158.242c0-50.57,44.588-91.71,99.393-91.71s99.393,41.14,99.393,91.71
					c0,32.363-39.2,103.916-72.084,158.243C1118.61,1526.193,1108.4,1531.947,1097.136,1531.947z M1097.136,1279.321
					c-47.791,0-86.672,35.436-86.672,78.991c0,22.626,25.604,77.903,70.246,151.657c3.51,5.798,9.65,9.259,16.426,9.259
					c6.776,0,12.917-3.461,16.427-9.26c44.642-73.751,70.246-129.027,70.246-151.655
					C1183.809,1314.757,1144.927,1279.321,1097.136,1279.321z"/>
				<path style="fill:#FFFFFF;" d="M1089.435,1422.345c-33.98,0-61.625-27.643-61.625-61.623c0-3.513,2.848-6.359,6.36-6.359
					s6.36,2.846,6.36,6.359c0,26.967,21.938,48.905,48.905,48.905c26.966,0,48.905-21.938,48.905-48.905
					c0-26.966-21.938-48.906-48.905-48.906c-15.594,0-29.892,7.179-39.229,19.697c-2.098,2.817-6.085,3.397-8.9,1.296
					c-2.816-2.101-3.396-6.085-1.295-8.901c11.588-15.537,30.065-24.811,49.424-24.811c33.98,0,61.625,27.645,61.625,61.625
					S1123.416,1422.345,1089.435,1422.345z"/>
			</g>
		</g>
		<g>
			<g>
				<g>
					<rect x="1106.464" y="2656.739" style="fill:#7D97F4;" width="41.245" height="446.041"/>
					<path style="fill:#7D97F4;" d="M946.463,3111.38h361.247v-16.308c0-5.821-4.719-10.54-10.54-10.54H957.823
						c-6.274,0-11.36,5.086-11.36,11.36V3111.38z"/>
					<path style="fill:#7D97F4;" d="M878.148,2640.287c0,25.926,21.212,47.139,47.138,47.139h388.426
						c25.926,0,47.139-21.213,47.139-47.139v-42.623c0-25.926-21.213-47.139-47.139-47.139H925.287
						c-25.926,0-47.138,21.213-47.138,47.139V2640.287z"/>
				</g>
				
					<linearGradient id="SVGID_00000155861487439966902740000005876693755001682592_" gradientUnits="userSpaceOnUse" x1="1393.9955" y1="3062.4961" x2="1321.186" y2="3205.6877">
					<stop  offset="0" style="stop-color:#09005D"/>
					<stop  offset="1" style="stop-color:#1A0F91"/>
				</linearGradient>
				<path style="fill:url(#SVGID_00000155861487439966902740000005876693755001682592_);" d="M1356.813,3023.761
					c0,0,117.777,84.894,97.327,141.928c0,0-128.863-55.599-144.433-99.396c-15.568-43.796,2.634-63.14,2.634-63.14
					L1356.813,3023.761z"/>
				
					<linearGradient id="SVGID_00000089549817502271760510000001187405933141719188_" gradientUnits="userSpaceOnUse" x1="1318.7476" y1="2995.1777" x2="1391.2788" y2="2995.1777">
					<stop  offset="0" style="stop-color:#FEBBBA"/>
					<stop  offset="1" style="stop-color:#FF928E"/>
				</linearGradient>
				<path style="fill:url(#SVGID_00000089549817502271760510000001187405933141719188_);" d="M1339.115,2952.613l-19.257,55.674
					c-2.907,8.402,0,17.969,7.515,22.718c3.763,2.378,8.907,4.577,15.937,6.171c9.921,2.249,20.163-2.333,24.933-11.317
					l23.036-43.38L1339.115,2952.613z"/>
				
					<linearGradient id="SVGID_00000041992906303028178960000004163769482154878123_" gradientUnits="userSpaceOnUse" x1="1218.377" y1="2803.2639" x2="1526.6025" y2="2371.2627">
					<stop  offset="0" style="stop-color:#09005D"/>
					<stop  offset="1" style="stop-color:#1A0F91"/>
				</linearGradient>
				<path style="fill:url(#SVGID_00000041992906303028178960000004163769482154878123_);" d="M1151.701,2451.499
					c0,0,241.91,41.926,345.68,137.787c103.771,95.861-95.246,401.645-95.246,401.645s-32.608-0.201-72.122-34.071
					c0,0,118.002-229.976,16.306-297.042c-114.332-75.399-246.093-92.38-246.093-92.38l49.135-108.548L1151.701,2451.499z"/>
				
					<linearGradient id="SVGID_00000088122320512968493990000004234877418002714767_" gradientUnits="userSpaceOnUse" x1="1637.0195" y1="2806.4617" x2="1506.6948" y2="2969.78">
					<stop  offset="0" style="stop-color:#09005D"/>
					<stop  offset="1" style="stop-color:#1A0F91"/>
				</linearGradient>
				<path style="fill:url(#SVGID_00000088122320512968493990000004234877418002714767_);" d="M1433.676,3134.144
					c-25.905-11.992-99.243-63.321-111.605-65.588c-12.363-2.264-33.805,12.264-33.805,12.264s-5.214,9.381,0.363,25.741
					c17.214,20.829,55.434,60.533,106.815,75.329c37.796,10.883,64.232,0.738,80.697-11.135
					C1467.083,3156.959,1450.928,3142.132,1433.676,3134.144z"/>
				
					<linearGradient id="SVGID_00000008851534400873336500000017185599762085099931_" gradientUnits="userSpaceOnUse" x1="1288.6288" y1="3154.4565" x2="1483.6625" y2="3154.4565">
					<stop  offset="0" style="stop-color:#4F52FF"/>
					<stop  offset="1" style="stop-color:#4042E2"/>
				</linearGradient>
				<path style="fill:url(#SVGID_00000008851534400873336500000017185599762085099931_);" d="M1395.444,3181.89
					c-51.381-14.796-89.602-54.5-106.815-75.329c3.77,11.056,12.462,25.295,31.039,41.992
					c46.068,41.405,134.053,56.33,152.786,53.454c15.012-2.305,13.597-16.162,3.688-31.252
					C1459.676,3182.629,1433.24,3192.774,1395.444,3181.89z"/>
				
					<linearGradient id="SVGID_00000035511142314309454270000009199946609775251621_" gradientUnits="userSpaceOnUse" x1="1266.299" y1="3062.1133" x2="1334.3712" y2="3062.1133">
					<stop  offset="0" style="stop-color:#FEBBBA"/>
					<stop  offset="1" style="stop-color:#FF928E"/>
				</linearGradient>
				<path style="fill:url(#SVGID_00000035511142314309454270000009199946609775251621_);" d="M1266.299,3044.585
					c0.291,7.138,14.878,31.614,23.403,45.347c4.052,6.526,11.15,10.513,18.831,10.534c4.872,0.012,10.473-0.412,15.558-1.871
					c7.635-2.192,11.922-10.325,9.689-17.948l-16.659-56.885L1266.299,3044.585z"/>
				
					<linearGradient id="SVGID_00000065755527204118617050000005809376763005510841_" gradientUnits="userSpaceOnUse" x1="1107.2803" y1="3018.5354" x2="1124.2693" y2="2440.9143">
					<stop  offset="0" style="stop-color:#09005D"/>
					<stop  offset="1" style="stop-color:#1A0F91"/>
				</linearGradient>
				<path style="fill:url(#SVGID_00000065755527204118617050000005809376763005510841_);" d="M918.84,2378.884
					c0,0-53.724,143.655,0,187.34c53.724,43.686,181.887,92.871,210.518,179.883c28.631,87.013,77.216,256.116,142.234,316.006
					c0,0,45.684-4.426,62.78-22.628c0,0-37.031-252.448-61.454-317.223c-21.15-56.094-52.312-137.062-112.031-182.318
					c-17.094-12.954-14.117-33.475-6.19-53.405l14.434-36.295L918.84,2378.884z"/>
				
					<linearGradient id="SVGID_00000059998004098012753680000003221986925426084756_" gradientUnits="userSpaceOnUse" x1="1550.7369" y1="2177.6292" x2="2194.0801" y2="1831.2129">
					<stop  offset="0" style="stop-color:#09005D"/>
					<stop  offset="1" style="stop-color:#1A0F91"/>
				</linearGradient>
				<path style="fill:url(#SVGID_00000059998004098012753680000003221986925426084756_);" d="M1479.153,2266.292
					c-90.08,5.431-62.011-138.481-60.388-144.205l-136.719,96.568c0,0,7.239,76.96,120.908,117.33
					c28.759,10.213,55.043,10.664,78.282,5.67C1471.327,2312.756,1473.342,2286.825,1479.153,2266.292z"/>
				
					<linearGradient id="SVGID_00000147916561818564350720000016822968657214200966_" gradientUnits="userSpaceOnUse" x1="1474.2997" y1="2277.1279" x2="1711.7598" y2="2277.1279">
					<stop  offset="0" style="stop-color:#FEBBBA"/>
					<stop  offset="1" style="stop-color:#FF928E"/>
				</linearGradient>
				<path style="fill:url(#SVGID_00000147916561818564350720000016822968657214200966_);" d="M1653.332,2222.978
					c-33.568-23.349-71.596,0-71.596,0c-44.883,29.353-78.088,41.838-102.583,43.314c-5.811,20.533-7.826,46.464,2.083,75.364
					c50.281-10.808,86.253-47.197,101.884-65.869c5.628-6.722,15.593-7.89,22.474-2.458c6.99,5.518,13.777,13.075,12.547,21.031
					c-2.427,15.686,15.775,20.672,17.147,14.985c1.372-5.69-6.227-39.415-6.227-39.415s36.405,36.609,50.616,50.676
					c14.211,14.068,32.082,0,32.082,0S1686.9,2246.328,1653.332,2222.978z"/>
				
					<linearGradient id="SVGID_00000024688369170609415910000014453668290234984873_" gradientUnits="userSpaceOnUse" x1="848.3976" y1="2412.7993" x2="1417.6252" y2="1903.4897">
					<stop  offset="0" style="stop-color:#09005D"/>
					<stop  offset="1" style="stop-color:#1A0F91"/>
				</linearGradient>
				<path style="fill:url(#SVGID_00000024688369170609415910000014453668290234984873_);" d="M1059.123,1899.838
					c0,0,131.05-52.471,374.941,148.881c0,0,20.372,42.167-1.852,79.7c-22.224,37.532-233.977,220.41-263.081,321.827
					c0,0-126.154,40.992-256.619-56.212C912.511,2394.033,924.025,2111.779,1059.123,1899.838z"/>
				
					<linearGradient id="SVGID_00000010294274591277255980000015895756672867757245_" gradientUnits="userSpaceOnUse" x1="1247.7281" y1="1918.47" x2="1405.2799" y2="1918.47">
					<stop  offset="0" style="stop-color:#FEBBBA"/>
					<stop  offset="1" style="stop-color:#FF928E"/>
				</linearGradient>
				<path style="fill:url(#SVGID_00000010294274591277255980000015895756672867757245_);" d="M1331.311,1836.589l-77.629,94.63
					c-6.405,7.766-7.816,18.567-3.386,27.605c8.955,18.267,30.201,44.858,77.322,41.181c14.017-1.094,26.43-9.552,32.553-22.208
					l45.109-93.25L1331.311,1836.589z"/>
				
					<linearGradient id="SVGID_00000116226703171299379020000009328326931695070349_" gradientUnits="userSpaceOnUse" x1="752.9146" y1="2306.083" x2="1322.144" y2="1796.7719">
					<stop  offset="0" style="stop-color:#09005D"/>
					<stop  offset="1" style="stop-color:#1A0F91"/>
				</linearGradient>
				<path style="fill:url(#SVGID_00000116226703171299379020000009328326931695070349_);" d="M957.661,2234.792
					c-15.214-61.959,138.886-200.091,138.886-200.091l-37.424-134.864c0,0-332.75,221.515-247.952,399.651
					c12.156,25.536,28.301,43.425,47.02,55.386C884.984,2282.752,927.684,2249.676,957.661,2234.792z"/>
				
					<linearGradient id="SVGID_00000111158624494195305810000013284393079434769838_" gradientUnits="userSpaceOnUse" x1="1748.0641" y1="2070.3777" x2="1333.9941" y2="2100.0715">
					<stop  offset="0" style="stop-color:#4F52FF"/>
					<stop  offset="1" style="stop-color:#4042E2"/>
				</linearGradient>
				<path style="fill:url(#SVGID_00000111158624494195305810000013284393079434769838_);" d="M957.552,2225.771
					c-1.635,0-3.124-1.11-3.532-2.773c-15.557-63.348,133.636-197.965,139.992-203.667c1.493-1.336,3.792-1.218,5.143,0.28
					c1.341,1.497,1.214,3.801-0.28,5.143c-1.526,1.365-152.307,137.371-137.784,196.509c0.479,1.953-0.716,3.925-2.669,4.404
					C958.135,2225.738,957.841,2225.771,957.552,2225.771z"/>
				
					<linearGradient id="SVGID_00000080185004399525795170000013318053500918199957_" gradientUnits="userSpaceOnUse" x1="1140.2892" y1="2279.9858" x2="537.098" y2="3328.1543">
					<stop  offset="0" style="stop-color:#FEBBBA"/>
					<stop  offset="1" style="stop-color:#FF928E"/>
				</linearGradient>
				<path style="fill:url(#SVGID_00000080185004399525795170000013318053500918199957_);" d="M1191.063,2229.46
					c0,0-182.703,70.934-227.3,17.578c-3.024-3.618-4.996-7.738-6.103-12.246c-29.977,14.884-72.677,47.96-99.47,120.083
					c96.091,61.402,260.339-34.158,304.75-62.33c7.306-4.634,16.07-6.26,24.542-4.503c17.129,3.552,46.72,8.775,62.679,6.317
					c23.348-3.597,56.882,78.759,94.723,53.357C1344.885,2347.716,1312.481,2204.563,1191.063,2229.46z"/>
				<g>
					
						<linearGradient id="SVGID_00000173118961817455933000000011110619281006357421_" gradientUnits="userSpaceOnUse" x1="1753.5793" y1="378.9338" x2="1556.6211" y2="639.4934" gradientTransform="matrix(0.9683 -0.2499 0.2499 0.9683 -371.2531 1820.1976)">
						<stop  offset="0" style="stop-color:#FEBBBA"/>
						<stop  offset="1" style="stop-color:#FF928E"/>
					</linearGradient>
					<path style="fill:url(#SVGID_00000173118961817455933000000011110619281006357421_);" d="M1458.571,1738.135
						c0.65,2.515-15.122,173.476-15.122,173.476l-97.425-11.08l-9.125-164.258
						C1336.898,1736.274,1447.705,1696.043,1458.571,1738.135z"/>
					
						<linearGradient id="SVGID_00000005987158990407979110000006471568334074027922_" gradientUnits="userSpaceOnUse" x1="1603.1572" y1="441.7873" x2="1838.4246" y2="441.7873" gradientTransform="matrix(0.9683 -0.2499 0.2499 0.9683 -371.2531 1820.1976)">
						<stop  offset="0" style="stop-color:#09005D"/>
						<stop  offset="1" style="stop-color:#1A0F91"/>
					</linearGradient>
					<path style="fill:url(#SVGID_00000005987158990407979110000006471568334074027922_);" d="M1362.272,1770.315l-1.967,86.844
						c-0.025,1.114,0.095,2.198,0.372,3.277c1.696,6.604,9.193,28.898,31.535,19.836c20.273-8.223,38.897-15.426,52.593-12.827
						c6.149,1.167,10.4,6.799,9.824,13.032c-1.437,15.532-5.323,50.474-13.33,80.317c-1.625,6.055-7.651,9.803-13.825,8.715
						c-18.606-3.278-57.655-11.288-87.56-25.091c-4.052-1.87-6.77-5.755-7.069-10.208c-1.46-21.709-6.142-87.674-10.29-105.854
						c-3.893-17.063-26.24-25.089-35.864-27.79c-3.155-0.885-5.784-3.006-7.324-5.899c-5.441-10.226-14.04-34.327,16.032-47.89
						c6.294-2.839,8.962-10.253,5.933-16.457c-6.03-12.353-10.131-31.763,12.808-45.223c23.315-13.681,43.064-2.619,54.118,6.92
						c4.469,3.856,10.958,3.807,15.574,0.128c2.629-2.094,6.203-3.079,10.899-0.823c6.329,3.041,13.897-0.336,16.265-6.945
						c4.55-12.698,15.1-26.923,39.559-25.445c43.4,2.619,53.406,49.296,45.203,78.191c-8.201,28.896-55.094,23.38-79.568,11.952
						c-18.608-8.688-40.017,4.909-49.21,11.926C1364.068,1763.223,1362.356,1766.652,1362.272,1770.315z"/>
					
						<linearGradient id="SVGID_00000014604570158600867170000013686824987989084584_" gradientUnits="userSpaceOnUse" x1="1467.5533" y1="585.913" x2="1624.7484" y2="424.6351" gradientTransform="matrix(0.9683 -0.2499 0.2499 0.9683 -371.2531 1820.1976)">
						<stop  offset="0" style="stop-color:#FEBBBA"/>
						<stop  offset="1" style="stop-color:#FF928E"/>
					</linearGradient>
					<path style="fill:url(#SVGID_00000014604570158600867170000013686824987989084584_);" d="M1326.504,1861.199
						c0,0,7.78-52.177-11.531-62.213c-19.31-10.036-45.275-0.875-35.508,34.007
						C1291.613,1876.382,1326.504,1861.199,1326.504,1861.199z"/>
					<path style="fill:#FFFFFF;" d="M1455.768,1747.215c4.01-0.844,7.837-2.062,11.517-3.439c3.654-1.448,7.14-3.194,10.203-5.473
						c3.161-2.174,5.628-5.126,7.657-8.362c2.13-3.245,3.209-7.06,4.392-11.008c0.173,4.038-0.042,8.409-1.975,12.263
						c-1.729,3.882-4.5,7.424-7.998,9.909C1472.585,1746.101,1463.921,1748.132,1455.768,1747.215z"/>
				</g>
				<g>
					
						<linearGradient id="SVGID_00000023969426586114254450000011412960828558112155_" gradientUnits="userSpaceOnUse" x1="7586.271" y1="14902.1455" x2="7783.9219" y2="14382.0117" gradientTransform="matrix(-0.9988 -0.0494 -0.0494 0.9988 13717.0957 -55.0327)">
						<stop  offset="0" style="stop-color:#4F52FF"/>
						<stop  offset="1" style="stop-color:#4042E2"/>
					</linearGradient>
					<path style="fill:url(#SVGID_00000023969426586114254450000011412960828558112155_);" d="M1284.665,2369.34
						c0.293,0.015,0.586,0.022,0.882,0.02l383.337-0.418c9.476-0.008,17.15-7.698,17.14-17.175
						c-0.009-9.479-7.727-17.31-17.178-17.14l-383.338,0.418c-9.476,0.008-17.15,7.699-17.14,17.175
						C1268.379,2361.401,1275.598,2368.892,1284.665,2369.34z"/>
					
						<linearGradient id="SVGID_00000147194033425213260270000001130390674746462612_" gradientUnits="userSpaceOnUse" x1="1459.4443" y1="2442.6545" x2="2010.7842" y2="2026.5487">
						<stop  offset="0" style="stop-color:#4F52FF"/>
						<stop  offset="1" style="stop-color:#4042E2"/>
					</linearGradient>
					<path style="fill:url(#SVGID_00000147194033425213260270000001130390674746462612_);" d="M2013.487,2021.293h-319.245
						c-23.551,0-44.987,13.592-55.033,34.893l-147.587,312.949h396.737c15.177,0,28.813-9.273,34.391-23.388l114.447-289.589
						C2043.81,2039.427,2031.479,2021.293,2013.487,2021.293z"/>
				</g>
				<g>
					<g>
						<path style="fill:#91B3FA;" d="M1961.73,3191.525c2.124,0,4.281-0.411,6.358-1.274c8.172-3.404,11.948-12.577,8.432-20.489
							l-337.842-760.342c-3.514-7.909-12.983-11.561-21.164-8.163c-8.172,3.404-11.947,12.577-8.432,20.489l337.842,760.342
							C1949.547,3187.99,1955.488,3191.525,1961.73,3191.525z"/>
						<path style="fill:#91B3FA;" d="M1581.137,3191.525c6.243,0,12.183-3.533,14.805-9.437l337.842-760.342
							c3.516-7.912-0.26-17.084-8.431-20.489c-8.167-3.404-17.645,0.249-21.164,8.163l-337.841,760.342
							c-3.516,7.911,0.26,17.085,8.432,20.489C1576.853,3191.115,1579.013,3191.525,1581.137,3191.525z"/>
						<path style="fill:#91B3FA;" d="M915.965,3191.525c2.124,0,4.281-0.411,6.358-1.274c8.172-3.404,11.948-12.577,8.432-20.489
							L592.913,2409.42c-3.516-7.909-12.981-11.561-21.164-8.163c-8.172,3.404-11.947,12.577-8.431,20.489l337.841,760.342
							C903.782,3187.99,909.723,3191.525,915.965,3191.525z"/>
						<path style="fill:#91B3FA;" d="M535.374,3191.525c6.243,0,12.183-3.533,14.805-9.437l337.841-760.342
							c3.516-7.912-0.26-17.084-8.431-20.489c-8.167-3.404-17.646,0.249-21.164,8.163l-337.842,760.342
							c-3.516,7.911,0.26,17.085,8.432,20.489C531.091,3191.115,533.25,3191.525,535.374,3191.525z"/>
					</g>
					<path style="fill:#91B3FA;" d="M495.748,2385.946c-0.862-4.987,0.311-10.144,3.199-14.062
						c2.887-3.918,7.187-6.188,11.724-6.188h1536.934c5.967,0,11.522,3.405,14.736,9.032c3.215,5.628,3.646,12.702,1.144,18.766
						l-16.655,40.357c-3.814,9.242-12.078,15.159-21.17,15.159H521.217c-8.458,0-15.73-6.715-17.336-16.013L495.748,2385.946z"/>
				</g>
				
					<linearGradient id="SVGID_00000066481915767070202100000002808849140819928756_" gradientUnits="userSpaceOnUse" x1="1190.9064" y1="1967.8573" x2="1297.623" y2="1872.3739">
					<stop  offset="0" style="stop-color:#09005D"/>
					<stop  offset="1" style="stop-color:#1A0F91"/>
				</linearGradient>
				<path style="fill:url(#SVGID_00000066481915767070202100000002808849140819928756_);" d="M1288.628,1995.859
					c0,0-21.132-79.213-13.56-93.318c7.572-14.104,13.56-16.438,13.56-16.438s-61.091-46.356-103.89-23.081
					c-42.799,23.275-35.309,37.185-24.61,53.234C1170.828,1932.306,1273.751,2000.029,1288.628,1995.859z"/>
				
					<linearGradient id="SVGID_00000062909674561857168460000012111002837613214085_" gradientUnits="userSpaceOnUse" x1="1300.5905" y1="2021.0114" x2="1374.7601" y2="1954.6488">
					<stop  offset="0" style="stop-color:#09005D"/>
					<stop  offset="1" style="stop-color:#1A0F91"/>
				</linearGradient>
				<path style="fill:url(#SVGID_00000062909674561857168460000012111002837613214085_);" d="M1288.628,1995.859
					c0,0,60.886,17.545,80.146,0c19.259-17.544-3.122-34.086-3.122-34.086S1313.795,2004.444,1288.628,1995.859z"/>
			</g>
			<path style="fill:#FFFFFF;" d="M1884.971,2180.9h-94.889c-6.361-24.878-28.922-43.271-55.781-43.271
				c-31.797,0-57.574,25.777-57.574,57.575s25.776,57.574,57.574,57.574c28.13,0,51.532-20.178,56.561-46.846h27.119v14.483
				c0,5.432,4.403,9.834,9.834,9.834h0.358c5.432,0,9.834-4.403,9.834-9.834v-14.483h25.033v22.35c0,5.431,4.403,9.834,9.834,9.834
				h0.357c5.431,0,9.834-4.403,9.834-9.834v-22.35h1.907c6.847,0,12.397-5.55,12.397-12.397v-0.238
				C1897.368,2186.45,1891.818,2180.9,1884.971,2180.9z M1734.301,2230.726c-19.618,0-35.522-15.904-35.522-35.522
				s15.904-35.522,35.522-35.522c19.619,0,35.522,15.903,35.522,35.522S1753.92,2230.726,1734.301,2230.726z"/>
		</g>
		<g>
			<circle style="fill:#FFFFFF;" cx="2106.104" cy="1088.713" r="345.39"/>
			<g>
				<defs>
					<circle id="SVGID_00000052064335995478698170000012735870740855490728_" cx="2106.104" cy="1088.713" r="307.597"/>
				</defs>
				<clipPath id="SVGID_00000035527495343442419960000011509678603615323581_">
					<use xlink:href="#SVGID_00000052064335995478698170000012735870740855490728_"  style="overflow:visible;"/>
				</clipPath>
				<g style="clip-path:url(#SVGID_00000035527495343442419960000011509678603615323581_);">
					
						<linearGradient id="SVGID_00000038374220507131051150000017280314127062261929_" gradientUnits="userSpaceOnUse" x1="1803.6223" y1="746.7568" x2="2083.7422" y2="1047.5809">
						<stop  offset="0" style="stop-color:#09005D"/>
						<stop  offset="1" style="stop-color:#1A0F91"/>
					</linearGradient>
					<path style="fill:url(#SVGID_00000038374220507131051150000017280314127062261929_);" d="M2033.513,887.566
						c0,0-10.659,44.86-39.361,20.108c-28.703-24.753-64.195-61.366-104.33-29.914c-40.136,31.452,7.473,57.495,7.473,57.495
						s-18.293-9.362-32.063,5.419c-3.958,4.248-10.281,5.03-14.994,1.64c-4.445-3.198-10.587-4.909-18-0.102
						c-5.831,3.782-22.061,40.598-7.225,105.878c8.835,38.876,34.526,150.857,122.469,172.132
						c57.422,13.892,106.455-19.351,110.763-22.369c48.165-33.739,57.34-85.348,58.84-94.746
						c-2.688-10.354-15.352-63.253,15.341-106.218c6.978-9.768,27.315-34.986,58.684-39.672c6.748-1.008,13.778,0.327,23.564,3.496
						c0,0,8.248,46.151,38.756,44.434c0,0-3.007-11.602,8.853-18.39c11.366-6.506,38.519-39.847-7.57-69.317
						c-3.659-2.34-5.573-6.584-5.186-10.909c1.247-13.955-1.895-45.911-49.027-72.151c-59.898-33.345-101.399-26.707-123.583,6.421
						c-1.609,2.402-4.141,4.028-6.97,4.623C2060.431,847.432,2038.647,855.503,2033.513,887.566z"/>
					
						<linearGradient id="SVGID_00000129902754904152752530000002206140291076942739_" gradientUnits="userSpaceOnUse" x1="2158.499" y1="1135.2689" x2="2099.1108" y2="1491.5994">
						<stop  offset="0" style="stop-color:#A22B25"/>
						<stop  offset="1" style="stop-color:#C0423C"/>
					</linearGradient>
					<polygon style="fill:url(#SVGID_00000129902754904152752530000002206140291076942739_);" points="2088.827,1122.06 
						2109.848,1229.122 2216.323,1219.566 2195.716,1106.822 					"/>
					
						<linearGradient id="SVGID_00000088100719372599508530000008077152567165937543_" gradientUnits="userSpaceOnUse" x1="1910.9847" y1="646.7828" x2="2191.1062" y2="947.6085">
						<stop  offset="0" style="stop-color:#09005D"/>
						<stop  offset="1" style="stop-color:#1A0F91"/>
					</linearGradient>
					<path style="fill:url(#SVGID_00000088100719372599508530000008077152567165937543_);" d="M2250.435,957.89
						c0,0,22.741,0,26.531,34.112s-37.902,49.272-37.902,49.272l-22.74-3.79l11.37-72.013L2250.435,957.89z"/>
					
						<linearGradient id="SVGID_00000021116957764388755420000017431700496264664495_" gradientUnits="userSpaceOnUse" x1="1952.9666" y1="2248.2512" x2="1928.7721" y2="1819.3434" gradientTransform="matrix(0.9977 0.0681 -0.0681 0.9977 345.4232 35.2827)">
						<stop  offset="0" style="stop-color:#A22B25"/>
						<stop  offset="1" style="stop-color:#C0423C"/>
					</linearGradient>
					<path style="fill:url(#SVGID_00000021116957764388755420000017431700496264664495_);" d="M2050.177,1033.064
						c0,0,14.947,114.989,81.979,134.76c67.033,19.771,96.947-84.559,101.244-91.864c0,0,14.609,8.595,19.423-6.273
						c4.814-14.867,26.301-51.39-7.732-53.713c0,0,10.144-37.298,0.09-56.979c-10.054-19.681-29.645-66.606-79.578-58.617
						C2115.671,908.368,2054.048,976.344,2050.177,1033.064z"/>
					
						<linearGradient id="SVGID_00000008115648649862489060000011531066044951449496_" gradientUnits="userSpaceOnUse" x1="1878.6509" y1="667.0395" x2="2167.3333" y2="977.059">
						<stop  offset="0" style="stop-color:#09005D"/>
						<stop  offset="1" style="stop-color:#1A0F91"/>
					</linearGradient>
					<path style="fill:url(#SVGID_00000008115648649862489060000011531066044951449496_);" d="M2240.075,907.705
						c-3.773-2.151-5.9-6.292-5.733-10.632c0.537-14.001-4.224-45.756-52.628-69.568c-61.514-30.26-102.624-21.523-123.098,12.689
						c-1.485,2.48-3.93,4.233-6.726,4.972c-9.4,2.489-30.746,11.656-34.246,43.938c0,0-3.793,20.466-15.36,26.833
						c27.684,23.01,39.967,103.71,40.527,104.791c8.671,2.105,40.632,6.651,79.168-27.465
						c46.198-40.898,50.119-48.412,80.304-40.307c0,0,21.783,45.497,52.166,42.233c0,0-8.005-9.399,3.496-16.78
						C2268.967,971.333,2287.601,934.795,2240.075,907.705z"/>
					
						<linearGradient id="SVGID_00000019669570491861128580000016588123587255861659_" gradientUnits="userSpaceOnUse" x1="1840.9454" y1="2254.563" x2="1816.7511" y2="1825.6575" gradientTransform="matrix(0.9977 0.0681 -0.0681 0.9977 345.4232 35.2827)">
						<stop  offset="0" style="stop-color:#A22B25"/>
						<stop  offset="1" style="stop-color:#C0423C"/>
					</linearGradient>
					<path style="fill:url(#SVGID_00000019669570491861128580000016588123587255861659_);" d="M2057.481,1037.362
						c0,0,1.548-22.689-17.617-20.197c-19.165,2.491-0.051,59.244,17.591,49.819L2057.481,1037.362z"/>
					
						<linearGradient id="SVGID_00000021836104965900067190000011241095638067065784_" gradientUnits="userSpaceOnUse" x1="2138.5488" y1="1265.8059" x2="2028.5699" y2="1630.9352">
						<stop  offset="0" style="stop-color:#A22B25"/>
						<stop  offset="1" style="stop-color:#C0423C"/>
					</linearGradient>
					<path style="fill:url(#SVGID_00000021836104965900067190000011241095638067065784_);" d="M2102.137,1189.851l-70.946,26.534
						l87.799,96.339l157.944-100.508c-12.457-4.651-20.308-13.708-32.276-16.919c-11.787-3.162-23.326-6.15-34.597-9.997
						L2102.137,1189.851z"/>
					
						<linearGradient id="SVGID_00000081613344489730486040000015924805813623357824_" gradientUnits="userSpaceOnUse" x1="1885.0541" y1="1361.6176" x2="2001.3994" y2="1361.6176">
						<stop  offset="0" style="stop-color:#4F52FF"/>
						<stop  offset="1" style="stop-color:#4042E2"/>
					</linearGradient>
					<path style="fill:url(#SVGID_00000081613344489730486040000015924805813623357824_);" d="M1985.317,1459.465
						c9.082-25.183,16.083-39.213,16.083-39.213l-61.409-156.481c0,0-29.129,59.629-53.051,139.231
						c-8.453,28.129,12.568,56.464,41.94,56.464H1985.317z"/>
					
						<linearGradient id="SVGID_00000000196363137250276540000017101685107199953582_" gradientUnits="userSpaceOnUse" x1="2475.4402" y1="1278.1926" x2="1703.8109" y2="1956.6943">
						<stop  offset="0" style="stop-color:#FDF53F"/>
						<stop  offset="1" style="stop-color:#D93C65"/>
					</linearGradient>
					<path style="fill:url(#SVGID_00000000196363137250276540000017101685107199953582_);" d="M2410.469,1405.292
						c-14.017-80.974-36.347-137.449-36.347-137.449l-82.356,118.076c11.396,25.407,19.982,50.161,26.221,73.546h46.976
						C2393.665,1459.465,2415.364,1433.574,2410.469,1405.292z"/>
					
						<linearGradient id="SVGID_00000080904070053623883510000009716306395494321586_" gradientUnits="userSpaceOnUse" x1="1935.2052" y1="1325.3813" x2="2374.4358" y2="1325.3813">
						<stop  offset="0" style="stop-color:#4F52FF"/>
						<stop  offset="1" style="stop-color:#4042E2"/>
					</linearGradient>
					<path style="fill:url(#SVGID_00000080904070053623883510000009716306395494321586_);" d="M2316.122,1459.465l57.718-186.587
						c6.94-10.8-47.2-56.857-137.936-81.58c-9.849,47.943-161.572,45.437-163.064,9.545
						c-69.704,25.038-132.537,44.157-137.635,73.164c2.51,55.358,16.714,117.103,35.407,185.457H2316.122z"/>
				</g>
			</g>
		</g>
	</g>
</g>
</svg>
